<?xml version="1.0" encoding="utf-8"?>
<!-- Generator: Adobe Illustrator 27.0.1, SVG Export Plug-In . SVG Version: 6.00 Build 0)  -->
<svg version="1.1" id="Layer_1" xmlns="http://www.w3.org/2000/svg" xmlns:xlink="http://www.w3.org/1999/xlink" x="0px" y="0px"
	 viewBox="0 0 32 48" style="enable-background:new 0 0 32 48;" xml:space="preserve">
<style type="text/css">
	.st0{fill:#2E3135;}
</style>
<path class="st0" d="M32,30.8V5.4c0-3-2.4-5.4-5.3-5.4s-5.3,2.4-5.3,5.4V12c-0.7-0.4-1.5-0.7-2.3-0.7c-1.3,0-2.4,0.6-3.2,1.4
	c-0.7-0.9-1.8-1.4-3.1-1.4c-0.8,0-1.6,0.2-2.2,0.6V9c0-3-2.4-5.4-5.3-5.4S0,6,0,9V31c0,0.2,0,0.4,0,0.6c0,0,0,0.1,0,0.1
	C0,40.7,7.2,48,16,48c8.8,0,16-7.3,16-16.3C32,31.4,32,31.1,32,30.8L32,30.8z M23.1,5.4c0-2,1.6-3.6,3.5-3.6s3.5,1.6,3.5,3.6v19.4
	c-0.7-0.6-1.5-1-2.4-1.2c-0.3-0.1-0.6-0.1-0.9-0.1h-3.7L23.1,5.4z M19,13.1c1.3,0,2.3,1,2.3,2.1v8.4h-4.7v-8.4
	C16.7,14,17.8,13.1,19,13.1L19,13.1z M12.8,13.1c1.2,0,2.2,0.9,2.2,2.1v2.2l0,6.2h-2.1c-0.8,0-1.5,0.2-2.2,0.5v-8.9
	C10.6,14,11.5,13.1,12.8,13.1L12.8,13.1z M30.1,33.4c-0.8,7.2-6.8,12.8-14.1,12.8c-6.6,0-12.1-4.6-13.7-10.7C2,34.3,1.8,33,1.8,31.7
	c0-0.1,0-0.2,0-0.2c0-0.2,0-0.3,0-0.5v-6.7L1.8,9c0-2,1.6-3.6,3.5-3.6S8.8,7,8.8,9v10.3l0,4.9v1.2c-0.7,0.9-1.1,2-1.1,3.2
	c0,1.2,0.4,2.2,1.1,3.1c0.4,0.5,0.9,1,1.5,1.3c0.8,0.4,1.6,0.7,2.6,0.7h6.8c-2.1,2.4-2.7,6.9-2.8,7.5c-0.1,0.5,0.3,0.9,0.8,1
	c0,0,0.1,0,0.1,0c0.4,0,0.8-0.3,0.9-0.8c0.2-1.8,1.3-6.9,3.6-7.7l3.6,0c0.5,0,0.9-0.4,0.9-0.9c0-0.5-0.4-0.9-0.9-0.9h-6.1l-5.7,0
	h-1.2c-0.8,0-1.6-0.3-2.2-0.8c-0.7-0.6-1.1-1.5-1.1-2.4c0-1,0.4-1.8,1.1-2.4c0.6-0.5,1.4-0.8,2.2-0.8h14c0.9,0,1.7,0.3,2.3,0.9
	c0.4,1,0.7,2.1,0.9,3.2c0.1,0.5,0.1,0.9,0.1,1.4c0,0.3,0,0.6,0,0.9c0,0.2,0,0.4,0,0.6C30.2,32.7,30.2,33,30.1,33.4
	C30.1,33.3,30.1,33.4,30.1,33.4L30.1,33.4z"/>
</svg>
